<?xml version="1.0" standalone="no"?>
<!DOCTYPE svg PUBLIC "-//W3C//DTD SVG 20010904//EN"
 "http://www.w3.org/TR/2001/REC-SVG-20010904/DTD/svg10.dtd">
<svg version="1.0" xmlns="http://www.w3.org/2000/svg"
 width="894.000000pt" height="836.000000pt" viewBox="0 0 894.000000 836.000000"
 preserveAspectRatio="xMidYMid meet">

<g transform="translate(0.000000,836.000000) scale(0.100000,-0.100000)"
fill="#fff" stroke="none">
<path d="M5750 8344 c-307 -26 -548 -81 -732 -166 -77 -36 -87 -43 -92 -72 -2
-17 -8 -128 -12 -247 l-7 -217 128 -152 c184 -219 289 -291 435 -298 99 -5
149 20 204 102 34 51 37 59 23 74 -8 9 -22 31 -30 48 l-16 31 102 -35 c75 -26
124 -36 187 -39 93 -5 118 1 290 62 79 28 127 39 191 42 l85 6 66 -89 c135
-183 248 -370 492 -823 75 -139 161 -294 191 -343 30 -49 49 -87 42 -85 -114
51 -148 60 -232 65 -167 8 -331 -46 -543 -181 -241 -152 -238 -152 -364 -117
-40 11 -126 24 -191 30 -110 10 -120 9 -146 -9 -71 -51 -239 -245 -598 -691
-100 -124 -216 -263 -258 -310 -69 -77 -140 -175 -205 -284 l-23 -39 119 7
c65 3 256 11 424 16 168 6 329 12 358 14 30 3 52 0 52 -5 0 -43 -369 -525
-1520 -1984 -1285 -1629 -1620 -2063 -1811 -2347 l-59 -87 30 -21 c105 -75
326 -145 554 -177 167 -23 619 -23 841 1 560 59 1123 191 1431 335 l81 38 12
64 c55 310 23 633 -88 888 -50 114 -148 262 -235 355 l-65 70 54 76 c251 348
566 654 990 959 177 128 268 207 415 358 248 254 422 522 520 799 47 132 59
123 -137 103 -93 -10 -175 -18 -183 -18 -8 0 93 39 225 88 521 191 743 302
980 492 155 123 493 480 645 679 129 170 258 386 409 688 172 344 191 498 85
707 -111 218 -417 552 -754 822 -313 252 -756 522 -1038 634 -172 69 -439 132
-693 164 -117 15 -531 28 -629 19z m-122 -876 c9 -9 7 -14 -6 -24 -34 -26 -60
-6 -30 24 15 15 21 15 36 0z"/>
<path d="M3660 7394 c-14 -2 -68 -12 -120 -20 -184 -31 -392 -114 -553 -221
-89 -58 -230 -198 -282 -278 -22 -33 -54 -96 -72 -140 -40 -97 -43 -165 -12
-274 16 -57 20 -94 17 -151 -6 -90 -24 -129 -103 -219 -89 -101 -90 -102 -66
-149 11 -22 32 -75 47 -118 22 -65 25 -93 23 -168 -8 -256 -7 -267 31 -342 46
-90 60 -96 185 -90 106 5 157 19 330 92 77 33 101 38 165 39 63 0 84 -5 130
-28 30 -15 75 -45 99 -66 l45 -38 -18 -84 c-47 -222 -143 -309 -396 -364 -317
-69 -421 -103 -550 -179 -207 -123 -348 -295 -396 -486 -34 -135 -5 -307 72
-436 19 -31 33 -58 31 -60 -1 -2 -29 12 -62 30 -105 58 -135 120 -135 281 0
40 -3 100 -6 134 -6 51 -10 62 -28 66 -54 13 -291 22 -381 14 -182 -15 -276
-51 -464 -177 -64 -43 -121 -81 -127 -85 -8 -5 -10 32 -6 131 5 165 -6 235
-82 507 -77 271 -90 355 -90 567 0 97 2 179 5 182 3 3 46 -8 97 -24 104 -34
177 -38 225 -14 96 50 282 233 345 341 70 119 87 180 87 323 0 107 -4 133 -23
182 -66 165 -224 288 -435 338 -45 11 -85 20 -88 20 -3 0 -25 -38 -48 -85 -80
-157 -209 -291 -553 -575 -123 -101 -138 -116 -138 -144 0 -66 -21 -317 -36
-436 -25 -202 -69 -410 -174 -830 -137 -551 -164 -734 -141 -951 27 -249 114
-458 288 -694 l64 -87 82 6 c116 9 207 24 322 53 138 34 318 41 536 19 220
-23 380 -10 574 46 102 29 265 99 265 113 0 6 -16 90 -35 185 -19 95 -34 175
-32 176 2 2 14 -29 26 -69 38 -117 78 -189 173 -309 155 -195 162 -216 177
-503 9 -163 16 -224 41 -329 60 -253 74 -351 74 -511 0 -146 -1 -153 -38 -270
-21 -66 -49 -158 -62 -205 -24 -85 -66 -312 -59 -318 14 -14 495 770 995 1623
555 947 984 1714 967 1731 -3 4 -1020 -166 -1080 -180 -13 -3 -17 0 -13 9 2 7
272 402 599 877 738 1073 767 1117 767 1180 0 15 -13 52 -29 81 -16 28 -35 80
-42 115 -16 83 -6 233 22 342 28 108 31 282 6 383 -24 96 -83 209 -146 278
-142 158 -344 237 -621 244 -80 2 -156 2 -170 -1z"/>
</g>
</svg>
